<?xml version="1.0" standalone="no"?>
<!DOCTYPE svg PUBLIC "-//W3C//DTD SVG 20010904//EN"
 "http://www.w3.org/TR/2001/REC-SVG-20010904/DTD/svg10.dtd">
<svg version="1.0" xmlns="http://www.w3.org/2000/svg"
 width="1024.000000pt" height="1024.000000pt" viewBox="0 0 1024.000000 1024.000000"
 preserveAspectRatio="xMidYMid meet">
<metadata>
Created by potrace 1.16, written by Peter Selinger 2001-2019
</metadata>
<g transform="translate(0.000000,1024.000000) scale(0.100000,-0.100000)"
fill="#000000" stroke="none">
<path d="M3720 7585 c0 -115 0 -116 23 -113 21 3 22 7 22 113 0 106 -1 110
-22 113 -23 3 -23 2 -23 -113z"/>
<path d="M3827 7693 c-12 -11 -8 -211 4 -219 19 -12 33 15 37 75 l4 59 55 -64
c39 -46 61 -64 79 -64 24 0 24 0 24 110 0 103 -1 110 -20 110 -17 0 -19 -8
-22 -72 l-3 -73 -60 73 c-54 66 -80 83 -98 65z"/>
<path d="M6204 7690 c-34 -13 -64 -59 -64 -97 0 -41 23 -88 47 -98 105 -42
183 -2 183 95 0 34 -6 48 -34 76 -27 27 -42 34 -72 33 -22 0 -49 -4 -60 -9z
m80 -31 c36 -17 52 -61 36 -100 -12 -27 -43 -49 -71 -49 -5 0 -21 11 -34 25
-35 34 -34 86 1 114 31 24 35 25 68 10z"/>
<path d="M6410 7616 c0 -74 3 -88 23 -112 18 -20 33 -27 64 -28 86 -2 116 39
111 150 -3 63 -5 69 -25 72 -22 3 -23 1 -23 -76 0 -67 -3 -82 -20 -97 -16 -15
-26 -17 -48 -9 -26 9 -27 13 -32 94 -5 79 -7 85 -27 88 -22 3 -23 1 -23 -82z"/>
<path d="M6637 7694 c-18 -18 -5 -34 28 -34 l35 0 0 -90 c0 -83 2 -90 20 -90
17 0 19 8 22 88 l3 87 33 3 c25 3 32 8 30 20 -3 14 -18 18 -84 20 -44 1 -83 0
-87 -4z"/>
<path d="M436 7650 c-94 -12 -86 81 -86 -1012 l0 -960 29 -29 29 -29 900 0
c495 0 908 3 917 6 33 13 45 59 45 174 l0 110 471 0 471 0 20 -25 c15 -19 29
-25 58 -25 31 0 43 5 56 25 15 23 22 25 89 25 67 0 74 -2 89 -25 13 -19 25
-25 54 -25 42 0 56 7 65 33 5 14 18 17 67 17 l60 0 0 -104 c0 -82 3 -108 16
-120 14 -14 162 -16 1484 -16 1322 0 1470 2 1484 16 13 12 16 38 16 120 l0
104 48 0 c39 0 53 -5 72 -25 32 -34 81 -34 108 0 19 24 23 25 152 25 129 0
133 -1 156 -25 17 -19 33 -25 62 -25 31 0 43 5 56 25 l16 25 330 0 330 0 0
-59 c0 -37 5 -63 14 -70 10 -8 255 -10 907 -9 l894 3 0 935 0 935 -899 3
c-713 2 -901 0 -908 -10 -4 -7 -8 -392 -8 -855 l0 -843 -333 0 c-324 0 -333 1
-345 20 -26 43 -104 42 -117 -1 -6 -18 -17 -19 -150 -19 -133 0 -144 1 -150
19 -14 45 -106 44 -120 -1 -5 -15 -17 -18 -61 -18 l-54 0 0 621 c0 588 1 621
18 613 29 -13 63 -7 86 15 21 20 33 21 220 21 197 0 198 0 228 -25 37 -32 62
-32 94 0 l25 25 209 0 210 0 0 -30 0 -30 84 42 85 42 -82 42 -82 42 -3 -29 -3
-29 -212 0 c-201 0 -213 1 -225 20 -9 15 -23 20 -52 20 -29 0 -43 -5 -52 -20
-12 -19 -24 -20 -223 -20 -199 0 -211 1 -223 20 -18 29 -72 27 -106 -5 l-28
-26 -1541 3 -1542 3 -23 23 c-28 28 -84 30 -109 3 -12 -12 -39 -20 -87 -25
-67 -7 -70 -6 -91 20 -27 34 -75 37 -108 7 -22 -21 -32 -21 -492 -25 l-470 -3
-5 170 c-5 173 -12 205 -47 220 -21 9 -1716 14 -1787 5z m1789 -40 c13 -11 15
-136 15 -975 0 -799 -2 -964 -14 -974 -10 -8 -259 -10 -922 -9 l-909 3 -10 25
c-7 17 -8 345 -5 975 l5 949 25 13 c36 19 1793 11 1815 -7z m6043 -36 c29 -20
31 -79 3 -94 -47 -25 -91 0 -91 50 0 28 30 60 55 60 6 0 21 -7 33 -16z m1017
-8 c69 -18 198 -85 271 -140 95 -71 254 -268 276 -341 14 -50 35 -275 33 -365
-1 -95 -21 -289 -35 -363 -13 -60 -72 -150 -164 -245 -85 -88 -132 -124 -248
-185 -129 -70 -168 -77 -406 -77 -226 0 -280 9 -386 62 -199 100 -388 301
-428 456 -37 141 -40 167 -36 387 4 206 5 225 30 291 31 88 120 225 185 286
105 98 138 128 145 128 3 0 20 11 36 24 35 30 115 63 197 81 84 18 463 19 530
1z m553 2 c20 -20 15 -76 -7 -88 -59 -31 -112 22 -81 81 12 22 68 27 88 7z
m-6520 -300 c7 -7 12 -21 12 -33 0 -44 -60 -63 -80 -26 -14 27 -13 37 6 55 18
19 45 21 62 4z m294 -14 c14 -31 1 -57 -31 -62 -28 -4 -51 14 -51 42 0 50 62
65 82 20z m3242 10 c19 -18 20 -28 6 -55 -19 -35 -80 -18 -80 22 0 21 26 49
45 49 7 0 21 -7 29 -16z m544 4 c7 -7 12 -21 12 -33 0 -45 -60 -63 -80 -24
-23 41 35 90 68 57z m-663 -110 c3 -35 5 -376 3 -758 l-3 -695 -1462 -3 -1463
-2 0 137 c-1 810 -1 1351 -1 1366 1 16 77 17 1460 17 l1459 0 7 -62z m-3491
25 c37 -29 57 -29 94 2 25 21 40 25 92 25 52 0 67 -4 92 -25 35 -30 67 -32 99
-6 17 13 45 20 87 23 l62 3 0 -632 0 -633 -57 0 c-50 0 -60 3 -79 27 -29 36
-79 36 -108 0 -20 -25 -28 -27 -93 -27 -64 0 -72 2 -87 25 -13 20 -25 25 -56
25 -29 0 -43 -6 -58 -25 l-20 -25 -471 0 -471 0 0 629 0 630 38 3 c20 2 233 3
472 3 l435 0 29 -22z m67 -1223 c23 -13 25 -52 4 -70 -19 -15 -61 -6 -69 16
-7 18 18 64 35 64 6 0 19 -5 30 -10z m297 -2 c35 -35 -15 -99 -53 -68 -30 25
-12 80 25 80 9 0 21 -5 28 -12z m3364 -5 c10 -9 18 -22 18 -29 0 -17 -28 -44
-45 -44 -7 0 -21 7 -29 16 -9 8 -16 22 -16 29 0 16 27 45 42 45 6 0 20 -7 30
-17z m422 1 c9 -8 16 -22 16 -29 0 -19 -28 -45 -49 -45 -39 0 -57 60 -23 79
24 15 38 13 56 -5z m880 -20 c21 -20 20 -53 -1 -76 -20 -22 -56 -23 -77 -2
-19 18 -21 65 -4 82 17 17 64 15 82 -4z m1564 4 c20 -20 15 -76 -7 -88 -26
-14 -64 -13 -79 2 -15 15 -16 53 -2 79 12 22 68 27 88 7z"/>
<path d="M470 6996 c0 -8 16 -16 40 -20 23 -3 38 -11 35 -16 -3 -5 -3 -45 1
-89 5 -58 11 -81 20 -81 11 0 14 21 14 89 l0 89 35 6 c21 4 35 13 35 21 0 12
-18 15 -90 15 -70 0 -90 -3 -90 -14z"/>
<path d="M680 6900 l0 -110 70 0 c56 0 70 3 70 15 0 11 -12 15 -50 15 l-50 0
0 35 c0 35 0 35 45 35 33 0 45 4 45 15 0 11 -12 15 -45 15 -42 0 -45 2 -45 28
0 26 2 27 47 27 38 0 48 4 51 18 3 15 -5 17 -67 17 l-71 0 0 -110z"/>
<path d="M904 7000 c-102 -41 -72 -210 37 -210 40 0 89 17 89 32 0 15 -28 20
-50 8 -78 -42 -136 96 -59 139 22 12 30 12 57 -1 26 -13 33 -14 42 -3 25 31
-62 57 -116 35z"/>
<path d="M1089 6992 c-28 -18 -33 -26 -27 -44 3 -8 10 -8 26 1 22 12 22 11 22
-74 0 -78 2 -85 20 -85 19 0 20 7 20 110 0 121 -5 128 -61 92z"/>
<path d="M1363 6986 c-23 -16 -29 -26 -23 -36 7 -12 12 -12 22 -2 23 23 28 11
28 -73 0 -78 2 -85 20 -85 19 0 20 7 20 110 0 124 -5 130 -67 86z"/>
<path d="M1505 6996 c-12 -9 -16 -19 -11 -31 5 -14 9 -16 18 -7 17 17 55 15
62 -4 7 -19 -4 -38 -58 -102 -20 -24 -36 -48 -36 -53 0 -5 32 -9 70 -9 56 0
70 3 70 15 0 11 -12 15 -47 15 l-47 0 36 38 c62 64 72 98 38 132 -23 23 -68
26 -95 6z"/>
<path d="M1645 6999 c-10 -16 -1 -21 50 -26 25 -3 45 -6 45 -7 0 -1 -15 -40
-34 -89 -31 -78 -33 -87 -17 -87 14 0 28 23 54 83 20 45 39 94 42 110 l7 27
-70 0 c-39 0 -74 -5 -77 -11z"/>
<path d="M1843 6989 c-20 -13 -30 -26 -26 -35 6 -16 12 -17 33 -4 13 8 16 -3
20 -73 4 -68 8 -82 23 -85 15 -3 17 7 17 107 0 124 -4 129 -67 90z"/>
<path d="M1980 6956 l0 -55 36 -3 c74 -6 72 -73 -1 -73 -43 0 -58 -19 -23 -29
65 -17 102 3 114 61 5 26 1 37 -20 58 -18 18 -34 25 -47 22 -14 -4 -19 0 -19
14 0 15 7 19 35 19 28 0 35 4 35 20 0 18 -7 20 -55 20 l-55 0 0 -54z"/>
<path d="M1200 6875 c0 -11 12 -15 50 -15 38 0 50 4 50 15 0 11 -12 15 -50 15
-38 0 -50 -4 -50 -15z"/>
<path d="M774 6625 c-10 -26 0 -178 13 -182 12 -4 20 81 14 154 -3 43 -16 56
-27 28z"/>
<path d="M1736 6633 c-3 -3 -6 -19 -6 -35 0 -18 -4 -27 -11 -23 -17 11 -66
-15 -78 -42 -9 -20 -9 -33 0 -55 12 -29 31 -37 87 -36 l32 1 0 93 c0 85 -7
114 -24 97z m-11 -123 c0 -31 -3 -35 -25 -35 -19 0 -26 6 -28 23 -5 36 5 54
30 50 19 -2 23 -9 23 -38z"/>
<path d="M1942 6546 c4 -125 23 -128 23 -4 0 66 -4 93 -13 96 -10 3 -12 -17
-10 -92z"/>
<path d="M490 6535 c0 -78 3 -95 15 -95 10 0 15 11 15 35 0 32 2 35 30 35 29
0 70 29 70 51 0 15 -21 53 -34 61 -6 4 -30 8 -53 8 l-43 0 0 -95z m85 35 c0
-20 -6 -26 -27 -28 -25 -3 -28 0 -28 28 0 28 3 31 28 28 21 -2 27 -8 27 -28z"/>
<path d="M927 6624 c-13 -13 -7 -24 14 -24 11 0 19 5 17 12 -5 14 -22 21 -31
12z"/>
<path d="M1297 6624 c-4 -4 -7 -47 -7 -96 0 -67 3 -89 13 -86 7 3 13 27 15 62
l3 58 22 -43 c12 -23 27 -42 32 -42 6 0 20 20 32 44 l22 44 0 -57 c1 -31 6
-60 12 -64 23 -14 30 15 23 100 -8 105 -23 111 -60 29 l-26 -58 -26 54 c-26
53 -41 68 -55 55z"/>
<path d="M849 6603 c-1 -5 -1 -11 0 -15 0 -5 -3 -8 -9 -8 -11 0 -2 -96 12
-123 6 -11 18 -17 30 -15 29 4 34 24 8 31 -18 5 -21 12 -18 44 2 24 8 37 16
36 6 -2 12 2 12 7 0 6 -7 10 -15 10 -8 0 -15 9 -15 20 0 18 -19 29 -21 13z"/>
<path d="M663 6570 c-44 -18 -42 -102 3 -122 28 -13 75 -2 82 20 3 9 -6 11
-37 6 -34 -5 -41 -4 -41 10 0 12 10 16 40 16 33 0 40 3 40 20 0 23 -33 60 -52
59 -7 0 -23 -4 -35 -9z m55 -37 c2 -9 -7 -13 -27 -13 -30 0 -39 9 -24 24 11
10 46 3 51 -11z"/>
<path d="M930 6510 c0 -53 3 -71 13 -67 8 2 12 25 12 67 0 42 -4 65 -12 68
-10 3 -13 -15 -13 -68z"/>
<path d="M1524 6568 c-30 -14 -46 -52 -34 -82 17 -47 76 -60 110 -26 27 27 25
66 -5 95 -26 27 -38 29 -71 13z m61 -38 c11 -36 -4 -62 -33 -58 -28 3 -40 32
-28 64 8 22 54 18 61 -6z"/>
<path d="M1880 6542 c0 -46 -20 -78 -44 -69 -11 5 -16 19 -16 52 0 33 -4 45
-15 45 -11 0 -15 -13 -15 -54 0 -64 11 -76 68 -73 l42 1 0 68 c0 39 -4 68 -10
68 -5 0 -10 -17 -10 -38z"/>
<path d="M2015 6556 c-59 -59 3 -145 76 -106 30 17 22 30 -17 27 -22 -1 -39 3
-41 11 -3 8 8 12 36 12 33 0 41 4 41 18 0 24 -20 49 -47 57 -17 4 -29 -1 -48
-19z m63 -23 c2 -9 -7 -13 -27 -13 -23 0 -29 4 -24 16 6 17 44 15 51 -3z"/>
<path d="M1002 6558 c-48 -60 6 -140 74 -109 36 16 29 31 -12 28 -22 -1 -39 3
-41 11 -3 8 8 12 36 12 44 0 51 12 31 51 -12 22 -71 27 -88 7z m66 -25 c2 -8
-6 -13 -22 -13 -17 0 -26 5 -26 16 0 19 41 16 48 -3z"/>
<path d="M1130 6504 c0 -35 4 -64 9 -64 10 0 21 35 21 71 0 16 9 32 23 42 22
14 21 15 -15 15 l-38 0 0 -64z"/>
<path d="M8685 7461 c-144 -68 -255 -172 -255 -237 0 -25 37 -60 162 -153 91
-67 137 -114 150 -151 5 -13 -15 -15 -141 -15 -121 0 -162 -4 -239 -24 -51
-13 -103 -32 -117 -43 -24 -19 -25 -23 -25 -146 0 -97 5 -144 21 -204 35 -127
54 -133 180 -57 154 93 237 129 294 129 28 0 55 -3 58 -6 4 -4 -9 -28 -28 -54
-69 -93 -106 -221 -104 -353 2 -116 7 -128 66 -160 67 -36 161 -55 292 -59
134 -4 134 -5 96 163 -21 95 -26 141 -23 208 3 82 20 140 43 148 6 2 39 -25
75 -60 43 -41 91 -75 142 -100 81 -39 232 -80 276 -75 31 4 87 73 131 163 33
67 74 225 65 250 -8 21 -27 23 -194 28 -114 4 -161 10 -217 27 l-73 23 0 43
c0 40 3 45 58 87 31 25 75 65 98 89 55 57 174 240 174 265 0 11 -34 59 -75
106 -74 85 -149 138 -235 169 -32 11 -35 10 -62 -22 -30 -36 -41 -65 -82 -200
-14 -49 -43 -113 -65 -148 -35 -53 -45 -62 -70 -62 -32 0 -35 5 -46 81 -7 52
-58 166 -107 237 -34 49 -127 152 -137 152 -3 0 -42 -18 -86 -39z"/>
<path d="M4268 6754 c-5 -4 -8 -56 -8 -115 l0 -108 36 -7 c115 -21 203 57 171
153 -7 20 -23 44 -37 54 -26 19 -149 37 -162 23z m126 -55 c20 -16 26 -29 26
-60 0 -50 -27 -79 -75 -79 l-35 0 0 80 0 80 29 0 c15 0 40 -9 55 -21z"/>
<path d="M4574 6746 c-69 -30 -94 -108 -55 -172 34 -56 135 -70 176 -24 15 16
16 22 5 35 -12 14 -15 14 -32 -1 -10 -10 -32 -17 -50 -17 -63 0 -91 81 -43
128 28 29 45 31 87 9 20 -10 34 -12 40 -6 15 15 1 32 -38 48 -41 17 -50 17
-90 0z"/>
<path d="M4934 6754 c-19 -4 -22 -14 -26 -66 -2 -33 -2 -85 0 -114 l4 -54 49
0 c56 0 95 13 126 42 48 45 37 145 -18 173 -31 17 -101 26 -135 19z m84 -40
c31 -9 55 -57 47 -95 -8 -36 -40 -59 -82 -59 l-33 0 0 73 c0 41 3 77 7 80 8 9
31 9 61 1z"/>
<path d="M5211 6742 c-19 -10 -44 -36 -55 -57 -18 -35 -18 -41 -5 -79 19 -55
70 -90 122 -83 39 5 87 31 87 46 0 18 -32 20 -61 5 -53 -27 -99 4 -99 67 0 67
56 100 107 64 21 -15 53 -11 53 6 0 14 -46 40 -81 45 -23 3 -46 -1 -68 -14z"/>
<path d="M5490 6639 l0 -121 69 4 c50 2 75 9 90 22 27 24 28 72 2 88 -17 11
-18 14 -4 34 32 50 -20 94 -112 94 l-45 0 0 -121z m115 51 c0 -22 -5 -25 -37
-28 -36 -3 -38 -2 -38 28 0 30 2 31 38 28 32 -3 37 -6 37 -28z m3 -103 c3 -27
2 -28 -35 -25 -33 3 -38 6 -41 31 -3 27 -2 28 35 25 33 -3 38 -6 41 -31z"/>
<path d="M6280 6706 c0 -8 -7 -16 -15 -20 -8 -3 -15 -12 -15 -21 0 -8 7 -15
15 -15 12 0 15 -13 15 -55 0 -58 14 -75 59 -75 28 0 28 36 1 43 -15 4 -20 14
-20 42 0 28 5 38 20 42 11 3 20 11 20 18 0 7 -9 15 -20 18 -11 3 -20 12 -20
21 0 9 -8 16 -20 16 -11 0 -20 -6 -20 -14z"/>
<path d="M5744 6680 c-30 -12 -54 -49 -54 -81 0 -35 51 -79 92 -79 37 0 88 48
88 84 0 54 -74 99 -126 76z m64 -42 c28 -28 7 -78 -34 -78 -22 0 -34 17 -34
49 0 21 19 41 40 41 9 0 21 -5 28 -12z"/>
<path d="M5950 6683 c-74 -29 -81 -115 -11 -152 51 -28 131 18 131 75 0 49
-73 96 -120 77z m60 -47 c28 -35 -11 -93 -47 -70 -36 22 -23 84 17 84 10 0 23
-7 30 -14z"/>
<path d="M6135 6680 c-61 -24 -55 -75 11 -91 58 -15 56 -32 -3 -27 -38 2 -48
0 -48 -12 0 -23 66 -36 104 -20 59 24 51 75 -15 91 -56 14 -59 33 -4 24 32 -5
41 -4 46 10 12 30 -42 45 -91 25z"/>
<path d="M4740 6615 c0 -12 14 -15 65 -15 51 0 65 3 65 15 0 12 -14 15 -65 15
-51 0 -65 -3 -65 -15z"/>
<path d="M4615 6376 c-51 -22 -70 -52 -69 -106 1 -63 23 -96 75 -110 48 -13
85 -7 118 21 23 19 23 20 5 34 -16 11 -21 11 -35 -1 -16 -14 -56 -18 -83 -8
-8 3 -20 22 -27 41 -10 31 -9 39 8 62 22 29 61 38 93 21 11 -6 30 -8 41 -5 17
6 18 9 7 22 -14 17 -69 43 -90 43 -7 -1 -26 -7 -43 -14z"/>
<path d="M5700 6340 c0 -11 -6 -20 -12 -21 -29 -2 -64 -6 -73 -9 -5 -2 -18 0
-28 5 -26 11 -29 3 -35 -80 l-5 -75 27 0 c25 0 26 3 26 50 0 44 3 51 28 64 16
8 38 13 48 10 16 -4 19 -12 16 -43 -6 -56 11 -81 53 -81 39 0 49 24 15 33 -16
4 -20 14 -20 46 0 34 3 41 20 41 13 0 20 7 20 20 0 13 -7 20 -20 20 -13 0 -20
7 -20 20 0 13 -7 20 -20 20 -13 0 -20 -7 -20 -20z"/>
<path d="M4813 6308 c-47 -23 -53 -103 -10 -133 12 -8 40 -15 62 -15 53 0 85
31 85 82 0 63 -72 97 -137 66z m85 -64 c4 -36 -18 -59 -47 -49 -47 15 -32 89
17 83 22 -2 28 -9 30 -34z"/>
<path d="M4990 6239 c0 -72 2 -79 20 -79 17 0 20 7 20 44 0 59 8 76 35 76 25
0 35 -22 35 -82 0 -31 4 -38 20 -38 18 0 20 7 20 69 0 44 -5 72 -13 79 -7 6
-41 11 -75 10 l-62 -1 0 -78z"/>
<path d="M5170 6310 c0 -6 12 -42 27 -80 24 -61 30 -70 53 -70 21 0 29 10 52
63 44 99 44 97 14 97 -14 0 -26 -6 -27 -12 0 -7 -9 -31 -19 -53 l-18 -40 -22
53 c-16 36 -28 52 -41 52 -11 0 -19 -5 -19 -10z"/>
<path d="M5376 6299 c-51 -40 -22 -131 46 -141 40 -6 88 9 88 27 0 21 -17 27
-41 15 -25 -14 -69 -5 -69 14 0 11 10 13 39 9 22 -3 52 -3 66 1 21 5 25 11 20
29 -18 61 -98 86 -149 46z m78 -15 c28 -11 17 -24 -20 -24 -31 0 -35 2 -24 15
14 17 21 18 44 9z"/>
<path d="M5833 6308 c-30 -14 -47 -67 -33 -102 18 -49 106 -69 148 -34 22 19
-5 39 -34 26 -18 -8 -31 -8 -50 1 -37 16 -24 24 43 25 69 1 78 17 38 65 -29
33 -68 40 -112 19z m82 -38 c4 -6 -8 -10 -30 -10 -22 0 -34 4 -30 10 3 6 17
10 30 10 13 0 27 -4 30 -10z"/>
<path d="M6000 6240 c0 -72 2 -80 19 -80 15 0 20 10 26 56 5 46 11 57 31 64
13 5 24 16 24 25 0 18 -31 20 -48 3 -9 -9 -12 -9 -12 0 0 7 -9 12 -20 12 -18
0 -20 -7 -20 -80z"/>
<path d="M4168 7618 c-3 -29 -7 -33 -35 -36 -47 -5 -43 -30 5 -34 32 -3 37 -7
40 -30 5 -39 32 -37 32 2 0 27 3 30 30 30 19 0 30 5 30 14 0 7 -13 16 -30 20
-25 5 -30 10 -30 36 0 23 -4 30 -19 30 -15 0 -21 -8 -23 -32z"/>
<path d="M6917 7620 c-6 -25 -11 -30 -37 -30 -23 0 -30 -4 -30 -20 0 -15 7
-20 29 -20 24 0 30 -5 35 -30 3 -18 12 -30 21 -30 10 0 15 10 15 30 0 27 3 30
30 30 23 0 30 4 30 20 0 16 -7 20 -30 20 -27 0 -30 3 -30 30 0 19 -5 30 -14
30 -7 0 -16 -13 -19 -30z"/>
<path d="M2440 7480 c0 -27 -3 -30 -31 -30 -38 0 -35 -24 4 -28 19 -2 27 -10
29 -29 4 -39 28 -42 28 -4 0 28 3 31 30 31 20 0 30 5 30 15 0 10 -10 15 -30
15 -27 0 -30 3 -30 30 0 20 -5 30 -15 30 -10 0 -15 -10 -15 -30z"/>
<path d="M3622 5758 c2 -62 7 -93 16 -96 9 -3 12 20 12 92 0 80 -3 96 -15 96
-13 0 -15 -15 -13 -92z"/>
<path d="M2377 5764 c-16 -16 10 -24 79 -24 59 0 74 3 74 15 0 12 -15 15 -73
15 -41 0 -77 -3 -80 -6z"/>
<path d="M4715 5648 c-9 -24 -2 -93 10 -93 14 0 19 85 6 98 -7 7 -12 5 -16 -5z"/>
<path d="M6000 5560 c0 -27 5 -50 10 -50 6 0 10 23 10 50 0 28 -4 50 -10 50
-5 0 -10 -22 -10 -50z"/>
<path d="M4716 5513 c-3 -3 -6 -28 -6 -55 0 -36 4 -48 15 -48 11 0 15 12 15
49 0 47 -9 68 -24 54z"/>
<path d="M8433 5500 c-22 -9 -30 -30 -16 -43 3 -4 12 -2 19 4 7 6 25 9 41 7
46 -5 41 -37 -16 -101 -28 -30 -51 -60 -51 -66 0 -7 25 -11 70 -11 54 0 70 3
70 14 0 10 -13 16 -41 18 l-42 3 37 43 c26 31 36 53 36 77 0 53 -49 78 -107
55z"/>
<path d="M8928 5504 c-5 -4 -8 -54 -8 -112 l0 -104 66 4 c58 4 70 8 90 32 39
45 29 135 -18 165 -24 15 -120 26 -130 15z m123 -50 c7 -9 14 -34 14 -56 0
-47 -30 -78 -76 -78 l-29 0 0 75 0 75 39 0 c23 0 44 -6 52 -16z"/>
<path d="M9185 5496 c-36 -16 -55 -52 -55 -107 0 -75 84 -124 151 -89 32 18
21 28 -25 23 -38 -5 -48 -2 -70 20 -50 50 -22 132 45 130 19 0 40 -2 48 -4 25
-7 22 17 -4 29 -33 15 -52 15 -90 -2z"/>
<path d="M9427 5504 c-4 -4 -7 -54 -7 -111 0 -85 3 -103 15 -103 10 0 16 11
17 30 0 17 1 36 2 43 1 7 20 14 45 17 62 7 67 30 7 30 -44 0 -46 1 -46 29 0
28 2 30 48 33 34 2 47 7 47 18 0 11 -15 16 -60 18 -34 2 -64 0 -68 -4z"/>
<path d="M8287 5479 c-30 -23 -28 -45 3 -29 10 5 21 10 24 10 3 0 6 -38 6 -85
0 -69 3 -85 15 -85 12 0 15 18 15 105 0 93 -2 105 -17 105 -10 0 -30 -10 -46
-21z"/>
<path d="M8634 5482 c52 -163 63 -187 86 -187 23 0 34 24 85 186 4 13 2 19 -9
19 -13 0 -36 -49 -61 -129 -9 -31 -19 -19 -48 59 -15 41 -30 66 -41 68 -14 3
-16 -1 -12 -16z"/>
<path d="M3570 5380 c0 -103 1 -110 20 -110 19 0 20 7 20 110 0 103 -1 110
-20 110 -19 0 -20 -7 -20 -110z"/>
<path d="M3670 5380 c0 -103 1 -110 20 -110 18 0 20 7 21 63 1 34 1 65 0 70
-3 17 11 3 64 -63 42 -53 62 -70 80 -70 l25 0 0 110 c0 103 -1 110 -20 110
-18 0 -20 -7 -20 -70 0 -38 -3 -70 -7 -69 -5 0 -32 31 -61 70 -40 52 -59 69
-78 69 l-24 0 0 -110z"/>
<path d="M6222 5470 c-43 -10 -70 -35 -81 -77 -22 -79 31 -143 120 -143 88 0
141 106 87 175 -17 22 -78 58 -90 54 -2 -1 -18 -5 -36 -9z m78 -50 c25 -25 27
-86 3 -112 -9 -10 -30 -18 -48 -18 -55 0 -87 58 -61 109 24 45 72 55 106 21z"/>
<path d="M6000 5420 c0 -27 5 -50 10 -50 6 0 10 23 10 50 0 28 -4 50 -10 50
-5 0 -10 -22 -10 -50z"/>
<path d="M6404 5455 c-4 -8 -4 -47 -2 -86 3 -63 7 -74 31 -95 41 -35 104 -33
139 4 27 28 31 47 29 140 -1 45 -4 52 -21 52 -18 0 -20 -7 -20 -64 0 -93 -11
-116 -54 -116 -46 0 -56 20 -56 109 0 65 -2 71 -20 71 -11 0 -23 -7 -26 -15z"/>
<path d="M6630 5450 c0 -15 7 -20 30 -20 l29 0 3 -87 c3 -80 5 -88 23 -88 18
0 20 8 23 93 l3 92 34 0 c24 0 35 5 35 15 0 12 -17 15 -90 15 -83 0 -90 -1
-90 -20z"/>
<path d="M9603 5433 c-25 -10 -12 -20 24 -19 56 2 57 -27 2 -40 -49 -11 -70
-35 -53 -61 9 -14 25 -18 68 -18 l56 -1 0 54 c0 71 -12 92 -53 91 -18 0 -38
-3 -44 -6z m57 -98 c-7 -8 -21 -15 -31 -15 -11 0 -19 7 -19 15 0 10 10 15 31
15 27 0 30 -2 19 -15z"/>
<path d="M9750 5363 c0 -55 3 -74 13 -71 6 3 14 28 17 58 9 99 70 94 70 -6 0
-41 4 -54 15 -54 12 0 15 14 15 64 0 77 -9 86 -78 85 l-52 -2 0 -74z"/>
<path d="M3977 5383 c-17 -16 -1 -22 73 -25 71 -3 80 -1 80 15 0 15 -10 17
-73 17 -41 0 -77 -3 -80 -7z"/>
<path d="M6840 5375 c0 -12 16 -15 80 -15 64 0 80 3 80 15 0 12 -16 15 -80 15
-64 0 -80 -3 -80 -15z"/>
<path d="M4718 5320 c5 -65 22 -65 22 0 0 33 -4 50 -12 50 -9 0 -12 -15 -10
-50z"/>
<path d="M6000 5270 c0 -27 5 -50 10 -50 6 0 10 23 10 50 0 28 -4 50 -10 50
-5 0 -10 -22 -10 -50z"/>
<path d="M4720 5175 c0 -30 5 -55 10 -55 6 0 10 25 10 55 0 30 -4 55 -10 55
-5 0 -10 -25 -10 -55z"/>
<path d="M6000 5120 c0 -27 5 -50 10 -50 6 0 10 23 10 50 0 28 -4 50 -10 50
-5 0 -10 -22 -10 -50z"/>
<path d="M4720 5025 c0 -30 5 -55 10 -55 6 0 10 25 10 55 0 30 -4 55 -10 55
-5 0 -10 -25 -10 -55z"/>
<path d="M6000 4965 c0 -30 5 -55 10 -55 6 0 10 25 10 55 0 30 -4 55 -10 55
-5 0 -10 -25 -10 -55z"/>
<path d="M4720 4876 c0 -31 5 -56 10 -56 6 0 10 22 10 49 0 28 -4 53 -10 56
-6 4 -10 -15 -10 -49z"/>
<path d="M6000 4811 c0 -34 4 -61 10 -61 6 0 10 24 10 54 0 30 -4 58 -10 61
-6 4 -10 -17 -10 -54z"/>
<path d="M4720 4725 c0 -25 0 -48 -1 -52 0 -4 4 -9 10 -11 7 -2 11 17 11 52 0
31 -4 56 -10 56 -5 0 -10 -20 -10 -45z"/>
<path d="M6000 4655 c0 -30 5 -55 10 -55 6 0 10 25 10 55 0 30 -4 55 -10 55
-5 0 -10 -25 -10 -55z"/>
<path d="M4716 4583 c-9 -58 -7 -73 9 -73 12 0 15 13 15 55 0 63 -14 73 -24
18z"/>
<path d="M6000 4511 c0 -28 5 -53 10 -56 6 -4 10 15 10 49 0 31 -4 56 -10 56
-5 0 -10 -22 -10 -49z"/>
<path d="M4715 4458 c-9 -24 -1 -103 10 -103 14 0 19 95 6 108 -7 7 -12 5 -16
-5z"/>
<path d="M6000 4355 c0 -30 5 -55 10 -55 6 0 10 25 10 55 0 30 -4 55 -10 55
-5 0 -10 -25 -10 -55z"/>
<path d="M4712 4258 c4 -74 28 -77 28 -4 0 44 -3 56 -16 56 -12 0 -14 -10 -12
-52z"/>
<path d="M6000 4235 c0 -32 26 -45 94 -45 43 0 56 3 56 15 0 12 -14 15 -65 15
-58 0 -65 2 -65 20 0 11 -4 20 -10 20 -5 0 -10 -11 -10 -25z"/>
<path d="M6200 4204 c0 -12 10 -14 52 -12 74 4 77 28 4 28 -44 0 -56 -3 -56
-16z"/>
<path d="M6357 4214 c-14 -15 7 -24 54 -24 37 0 49 4 49 15 0 11 -12 15 -48
15 -27 0 -52 -3 -55 -6z"/>
<path d="M6502 4208 c3 -8 23 -13 53 -13 30 0 50 5 52 13 3 9 -11 12 -52 12
-41 0 -56 -3 -53 -12z"/>
<path d="M6650 4204 c0 -12 10 -14 47 -12 66 4 70 28 4 28 -39 0 -51 -4 -51
-16z"/>
<path d="M6792 4208 c5 -15 97 -18 101 -3 1 6 -22 11 -52 13 -40 2 -52 0 -49
-10z"/>
<path d="M6940 4211 c0 -13 26 -21 66 -21 24 0 34 5 34 15 0 11 -12 15 -50 15
-27 0 -50 -4 -50 -9z"/>
<path d="M7085 4210 c-7 -12 -11 -11 44 -13 28 -1 46 3 49 11 5 15 -84 17 -93
2z"/>
<path d="M7225 4210 c-3 -5 -5 -10 -3 -11 30 -5 108 -1 110 6 4 14 -98 19
-107 5z"/>
<path d="M7377 4214 c-11 -12 3 -24 29 -24 19 0 24 -5 24 -25 0 -14 5 -25 10
-25 6 0 10 18 10 40 0 39 -1 40 -33 40 -19 0 -37 -3 -40 -6z"/>
<path d="M4715 4150 c-11 -17 -1 -100 13 -100 8 0 12 18 12 55 0 51 -10 69
-25 45z"/>
<path d="M7430 4050 c0 -27 5 -50 10 -50 6 0 10 23 10 50 0 28 -4 50 -10 50
-5 0 -10 -22 -10 -50z"/>
<path d="M5075 4038 c-32 -18 -35 -28 -35 -145 0 -62 -3 -113 -8 -113 -4 0
-24 11 -44 25 l-37 25 -3 -28 c-3 -26 -5 -27 -70 -30 -88 -4 -88 -20 -1 -24
60 -3 68 -5 73 -25 l5 -23 30 20 c17 11 35 20 42 20 9 0 12 -68 13 -267 0
-232 3 -269 17 -285 15 -17 44 -18 428 -18 306 0 414 3 423 12 9 9 12 117 12
424 l0 413 -22 15 c-19 14 -75 16 -413 16 -272 -1 -396 -4 -410 -12z m808 -28
c4 0 6 -111 5 -247 l-3 -248 -370 -7 c-248 -4 -374 -3 -382 4 -10 8 -13 71
-13 253 0 133 2 244 6 247 4 4 311 4 757 -2z m-790 -519 c-1 -1 -6 0 -12 4
-13 7 -16 497 -3 509 6 6 21 -501 15 -513z m807 -148 c0 -65 -4 -124 -8 -131
-7 -9 -96 -12 -413 -10 l-404 3 -3 128 -3 127 416 0 415 0 0 -117z"/>
<path d="M5290 3943 c-19 -3 -41 -9 -47 -15 -19 -15 -18 -291 0 -306 9 -8 98
-12 262 -12 215 -1 250 1 264 15 13 13 16 38 13 153 -3 185 15 172 -251 170
-113 0 -222 -3 -241 -5z m464 -39 c3 -9 6 -69 6 -134 0 -108 -2 -120 -20 -130
-12 -7 -101 -9 -247 -8 l-228 3 -3 26 -3 26 193 -3 c106 -2 210 -1 231 2 l37
6 0 78 c0 43 -5 82 -10 85 -18 11 -434 5 -441 -6 -10 -17 -17 37 -7 55 8 14
40 16 247 16 209 0 240 -2 245 -16z"/>
<path d="M5254 3407 c-3 -8 -4 -45 -2 -83 l3 -69 215 -3 c246 -3 240 -5 240
84 0 90 16 84 -231 84 -175 0 -221 -3 -225 -13z"/>
<path d="M4715 3966 c-8 -41 -4 -70 10 -68 13 2 19 102 6 102 -6 0 -13 -15
-16 -34z"/>
<path d="M7430 3900 c0 -27 5 -50 10 -50 6 0 10 23 10 50 0 28 -4 50 -10 50
-5 0 -10 -22 -10 -50z"/>
<path d="M4717 3843 c-4 -3 -7 -26 -7 -50 0 -42 1 -43 33 -43 26 1 29 2 15 11
-12 7 -18 22 -18 49 0 38 -8 49 -23 33z"/>
<path d="M6137 3834 c-4 -4 -7 -43 -7 -86 0 -75 2 -81 29 -109 32 -31 71 -38
115 -18 35 16 47 55 44 140 -2 61 -6 74 -20 77 -16 3 -18 -6 -18 -80 0 -52 -5
-89 -12 -96 -16 -16 -73 -15 -86 1 -6 7 -12 48 -14 92 -3 72 -13 97 -31 79z"/>
<path d="M6385 3815 c-14 -13 -25 -30 -25 -37 0 -29 33 -58 76 -69 79 -20 69
-64 -14 -64 -57 0 -67 -16 -18 -29 48 -13 97 3 116 36 13 25 13 29 -6 55 -13
18 -38 33 -68 41 -34 10 -46 18 -46 32 0 23 37 35 80 27 35 -7 49 8 21 22 -36
20 -90 13 -116 -14z"/>
<path d="M6570 3725 l0 -115 44 0 c89 0 136 43 102 94 -12 19 -13 32 -7 49 21
55 -14 87 -94 87 l-45 0 0 -115z m105 50 c0 -15 -8 -21 -32 -23 -30 -3 -33 -1
-33 23 0 24 3 26 33 23 24 -2 32 -8 32 -23z m9 -87 c13 -22 2 -33 -41 -41 -32
-6 -33 -6 -33 29 0 34 2 35 31 32 18 -2 37 -11 43 -20z"/>
<path d="M7430 3765 c0 -20 -5 -25 -25 -25 -14 0 -25 -5 -25 -11 0 -6 14 -9
33 -7 28 3 32 7 35 36 2 18 -1 32 -7 32 -6 0 -11 -11 -11 -25z"/>
<path d="M7108 3749 c-10 -5 -18 -17 -18 -25 0 -17 51 -39 59 -26 3 6 15 11
25 13 30 6 32 29 2 29 -13 0 -28 5 -31 10 -8 12 -15 12 -37 -1z"/>
<path d="M6940 3725 c0 -12 13 -15 60 -15 47 0 60 3 60 15 0 12 -13 15 -60 15
-47 0 -60 -3 -60 -15z"/>
<path d="M7240 3730 c0 -5 23 -10 50 -10 28 0 50 5 50 10 0 6 -22 10 -50 10
-27 0 -50 -4 -50 -10z"/>
<path d="M6184 3430 c-35 -14 -54 -50 -54 -103 0 -40 5 -53 29 -78 61 -60 156
-27 168 58 13 95 -59 157 -143 123z m85 -38 c32 -25 32 -99 1 -124 -51 -41
-110 -8 -110 62 0 69 59 103 109 62z"/>
<path d="M6550 3395 c0 -9 -7 -18 -15 -21 -19 -8 -20 -24 0 -24 10 0 15 -16
17 -62 3 -63 3 -63 36 -66 35 -4 45 16 12 25 -16 4 -20 14 -20 53 0 41 3 49
23 54 l22 7 -22 9 c-13 5 -23 16 -23 25 0 8 -7 15 -15 15 -8 0 -15 -7 -15 -15z"/>
<path d="M7010 3395 c0 -7 -8 -18 -17 -24 -17 -9 -17 -10 0 -16 13 -6 17 -19
17 -59 0 -57 12 -76 47 -76 28 0 31 26 3 33 -16 4 -20 14 -20 50 0 37 4 46 23
52 l22 8 -22 4 c-15 3 -23 12 -23 24 0 10 -7 19 -15 19 -8 0 -15 -7 -15 -15z"/>
<path d="M6702 3370 c-12 -5 -28 -7 -36 -4 -18 7 -27 -54 -19 -138 4 -48 10
-68 19 -68 10 0 14 13 14 42 0 33 3 39 12 30 19 -19 63 -14 84 9 23 25 25 93
4 113 -21 20 -51 26 -78 16z m46 -32 c7 -7 12 -24 12 -38 0 -14 -5 -31 -12
-38 -17 -17 -55 -15 -62 4 -16 42 1 84 34 84 9 0 21 -5 28 -12z"/>
<path d="M6360 3317 c0 -78 18 -97 83 -94 l52 3 3 72 c2 60 0 72 -13 72 -11 0
-15 -11 -15 -48 0 -53 -12 -72 -46 -72 -26 0 -34 17 -34 76 0 32 -4 44 -15 44
-11 0 -15 -13 -15 -53z"/>
<path d="M6828 3333 c-4 -100 6 -113 78 -111 l54 2 0 73 c0 58 -3 73 -15 73
-11 0 -15 -12 -15 -49 0 -39 -4 -53 -21 -65 -36 -25 -49 -10 -49 55 0 46 -3
59 -15 59 -10 0 -15 -12 -17 -37z"/>
<path d="M5533 2889 c-23 -35 -28 -54 -28 -103 0 -70 32 -136 66 -136 24 0 24
2 -6 46 -35 51 -37 123 -5 186 27 53 7 57 -27 7z"/>
<path d="M6537 2924 c-3 -4 3 -18 14 -33 12 -16 22 -50 25 -82 5 -44 1 -62
-19 -102 -40 -78 -4 -72 39 7 24 43 15 141 -16 184 -24 32 -32 37 -43 26z"/>
<path d="M5627 2914 c-4 -4 -7 -31 -7 -61 l0 -53 40 0 c34 0 41 -4 46 -25 9
-37 -13 -58 -53 -52 -35 6 -55 -9 -32 -24 50 -31 129 11 131 70 1 38 -19 58
-64 68 -21 4 -28 11 -28 29 0 22 4 24 46 24 32 0 44 4 42 13 -5 13 -109 23
-121 11z"/>
<path d="M5784 2903 c68 -181 82 -213 97 -213 12 0 29 31 58 103 45 111 48
127 27 127 -8 0 -28 -35 -48 -86 l-34 -85 -35 85 c-25 65 -39 86 -53 86 -13 0
-16 -5 -12 -17z"/>
<path d="M6100 2805 l0 -115 50 0 c89 0 140 42 140 115 0 73 -51 115 -140 115
l-50 0 0 -115z m125 60 c52 -51 16 -145 -55 -145 l-30 0 0 85 0 85 30 0 c19 0
40 -9 55 -25z"/>
<path d="M6376 2905 c-54 -28 -72 -76 -55 -139 13 -46 58 -76 115 -76 36 0 64
13 64 31 0 3 -22 4 -49 1 -65 -6 -91 18 -91 83 0 65 26 88 92 83 32 -2 53 1
55 8 9 26 -87 32 -131 9z"/>
</g>
</svg>
