<?xml version="1.0" standalone="no"?>
<!DOCTYPE svg PUBLIC "-//W3C//DTD SVG 20010904//EN"
 "http://www.w3.org/TR/2001/REC-SVG-20010904/DTD/svg10.dtd">
<svg version="1.0" xmlns="http://www.w3.org/2000/svg"
 width="249.000000pt" height="267.000000pt" viewBox="0 0 249.000000 267.000000"
 preserveAspectRatio="xMidYMid meet">
<metadata>
Created by potrace 1.16, written by Peter Selinger 2001-2019
</metadata>
<g transform="translate(0.000000,267.000000) scale(0.100000,-0.100000)"
fill="#000000" stroke="none">
<path d="m1233 1188 c-7 -2 -21 -2 -30 0 -10 3 -4 5 12 5 17 0 24 -2 18 -5z
m164 1 c-3 -3 -12 -4 -19 -1 -8 3 -5 6 6 6 11 1 17 -2 13 -5z m90 -54 c119
-24 275 -98 359 -172 164 -143 256 -298 295 -500 58 -300 -27 -579 -241 -797
-154 -155 -342 -237 -570 -248 -113 -5 -135 -3 -225 20 -213 55 -360 148 -492
312 -72 89 -146 256 -168 378 -89 493 253 960 750 1027 75 10 173 3 292 -20z
m-667 -74 c0 -2 -8 -10 -17 -17 -16 -13 -17 -12 -4 4 13 16 21 21 21 13z m-60
-39 c0 -2 -10 -12 -22 -23 l-23 -19 19 23 c18 21 26 27 26 19z m1146 -69 l29
-33 -32 29 c-31 28 -38 36 -30 36 2 0 16 -15 33 -32z m123 -142 c-3 -3 -11 5
-18 17 -13 21 -12 21 5 5 10 -10 16 -20 13 -22z m148 -348 c-3 -8 -6 -5 -6 6
-1 11 2 17 5 13 3 -3 4 -12 1 -19z m-1770 -30 c-3 -8 -6 -5 -6 6 -1 11 2 17 5
13 3 -3 4 -12 1 -19z m1780 -50 c-3 -7 -5 -2 -5 12 0 14 2 19 5 13 2 -7 2 -19
0 -25z m0 -210 c-3 -8 -6 -5 -6 6 -1 11 2 17 5 13 3 -3 4 -12 1 -19z m-1780
-30 c-3 -8 -6 -5 -6 6 -1 11 2 17 5 13 3 -3 4 -12 1 -19z m1770 -55 c-3 -10
-5 -4 -5 12 0 17 2 24 5 18 2 -7 2 -21 0 -30z m113 24 c0 -2 -12 -14 -27 -28
l-28 -24 24 28 c23 25 31 32 31 24z m-1974 -49 c32 -35 42 -59 53 -129 6 -35
24 -91 40 -124 24 -49 26 -55 8 -33 -44 53 -57 72 -58 88 -6 117 -14 160 -29
160 -12 0 -13 -16 -1 -58 5 -17 6 -32 1 -32 -12 0 -18 -57 -7 -76 19 -34 14
-94 -11 -117 -18 -17 -25 -19 -31 -8 -5 8 -14 10 -22 6 -8 -5 -11 -5 -7 0 8 9
-20 66 -39 78 -6 4 -9 20 -7 36 3 16 -2 44 -10 62 l-16 34 5 -30 c5 -29 6 -73
4 -105 -3 -40 5 -109 12 -105 4 3 6 -3 4 -12 -2 -10 -4 -21 -4 -25 -1 -5 -5
-8 -10 -8 -21 0 -31 72 -29 189 l3 122 25 -29 c14 -16 40 -47 58 -67 17 -21
34 -36 35 -34 6 7 -10 212 -18 238 -7 21 -6 22 11 13 10 -6 29 -21 40 -34z
m1979 -19 c-13 -25 -16 -50 -13 -106 6 -86 19 -109 38 -64 13 31 88 107 97 98
2 -3 -1 -16 -8 -29 -7 -13 -16 -76 -19 -143 -6 -107 -22 -177 -37 -161 -3 3
-1 11 4 18 6 7 10 20 11 28 0 8 3 64 6 125 5 88 4 107 -6 97 -7 -7 -13 -16
-14 -20 -6 -35 -18 -73 -26 -78 -5 -3 1 -18 14 -33 12 -14 16 -20 8 -13 -17
14 -30 16 -30 3 0 -6 -11 -22 -24 -36 l-25 -27 -40 41 c-22 23 -43 41 -47 41
-4 0 -16 -8 -27 -17 -17 -16 -17 -13 3 20 14 24 28 37 39 34 9 -2 15 -8 14
-13 -1 -6 4 -11 12 -11 8 0 12 4 9 8 -2 4 -1 10 4 13 10 6 8 104 -3 114 -4 4
-6 -8 -3 -25 3 -25 -1 -38 -19 -55 -28 -26 -28 -26 -3 74 20 76 47 134 58 124
2 -3 -3 -17 -12 -30 -9 -14 -16 -38 -15 -53 0 -20 6 -10 22 37 20 59 35 85 45
75 2 -2 -4 -18 -13 -36z m28 -79 c3 -11 1 -23 -4 -26 -5 -3 -9 6 -9 20 0 31 6
34 13 6z m-2186 -57 c-3 -10 -5 -4 -5 12 0 17 2 24 5 18 2 -7 2 -21 0 -30z
m270 -5 c-3 -8 -6 -5 -6 6 -1 11 2 17 5 13 3 -3 4 -12 1 -19z m1710 -20 c-3
-7 -5 -2 -5 12 0 14 2 19 5 13 2 -7 2 -19 0 -25z m-1980 -35 c-3 -10 -5 -4 -5
12 0 17 2 24 5 18 2 -7 2 -21 0 -30z m1943 -13 c-12 -16 -24 -30 -26 -30 -3 0
4 14 16 30 12 17 24 30 26 30 3 0 -4 -13 -16 -30z m-1953 -87 c-3 -10 -5 -4
-5 12 0 17 2 24 5 18 2 -7 2 -21 0 -30z m2310 -15 c-3 -7 -5 -2 -5 12 0 14 2
19 5 13 2 -7 2 -19 0 -25z m-2009 -22 c30 -33 30 -34 7 -32 -13 0 -21 4 -19 7
2 4 -6 18 -17 33 -30 38 -8 32 29 -8z m42 13 c0 -6 -4 -7 -10 -4 -5 3 -10 11
-10 16 0 6 5 7 10 4 6 -3 10 -11 10 -16z m1550 18 c0 -2 -12 -14 -27 -28 l-28
-24 24 28 c23 25 31 32 31 24z m100 -17 c-24 -15 -37 -11 -16 5 11 8 22 12 25
9 3 -3 -1 -9 -9 -14z m-1519 -7 c13 -16 12 -17 -3 -4 -10 7 -18 15 -18 17 0 8
8 3 21 -13z m-242 -19 c7 -37 94 -159 160 -224 119 -118 204 -175 330 -222
104 -39 102 -36 95 -147 -4 -53 -10 -106 -13 -117 l-6 -21 -76 22 c-74 22
-159 61 -209 95 -14 9 -51 34 -83 54 -138 89 -250 195 -321 304 -29 46 -56
113 -56 141 0 19 148 143 164 138 6 -2 13 -12 15 -23z m1814 9 c-3 -10 -14
-27 -25 -39 -10 -11 -15 -24 -11 -29 5 -4 -2 -2 -13 5 -21 13 -21 13 10 46 34
37 49 43 39 17z m-1663 -17 c0 -2 -8 -10 -17 -17 -16 -13 -17 -12 -4 4 13 16
21 21 21 13z m121 -13 c13 -16 12 -17 -3 -4 -10 7 -18 15 -18 17 0 8 8 3 21
-13z m1668 -44 c68 -57 72 -63 65 -92 -10 -49 -48 -117 -96 -172 -60 -71 -190
-187 -257 -231 -31 -21 -67 -45 -81 -54 -14 -10 -37 -21 -50 -25 -14 -4 -40
-15 -57 -26 -18 -10 -73 -29 -122 -43 l-88 -24 -7 61 c-8 81 -7 159 2 174 5 7
41 24 81 38 140 49 256 124 376 241 54 53 134 161 141 190 3 13 9 24 13 24 4
0 40 -27 80 -61z m128 39 c-3 -8 -6 -5 -6 6 -1 11 2 17 5 13 3 -3 4 -12 1 -19z
m-1957 -12 c0 -2 -8 -10 -17 -17 -16 -13 -17 -12 -4 4 13 16 21 21 21 13z
m-312 -46 c-7 -10 -14 -17 -17 -15 -4 4 18 35 25 35 2 0 -1 -9 -8 -20z m1742
7 c0 -2 -12 -14 -27 -28 l-28 -24 24 28 c23 25 31 32 31 24z m-1410 -62 c13
-14 21 -25 18 -25 -2 0 -15 11 -28 25 -13 14 -21 25 -18 25 2 0 15 -11 28 -25z
m1350 11 c0 -2 -8 -10 -17 -17 -16 -13 -17 -12 -4 4 13 16 21 21 21 13z m240
-29 c0 -2 -10 -12 -22 -23 l-23 -19 19 23 c18 21 26 27 26 19z m-290 -11 c0
-2 -8 -10 -17 -17 -16 -13 -17 -12 -4 4 13 16 21 21 21 13z m-1239 -33 c13
-16 12 -17 -3 -4 -10 7 -18 15 -18 17 0 8 8 3 21 -13z m1198 4 c-2 -1 -13 -9
-24 -17 -19 -14 -19 -14 -6 3 7 9 18 17 24 17 6 0 8 -1 6 -3z m271 -23 c-8 -8
-23 -20 -34 -25 -13 -7 -9 -1 9 15 34 29 43 33 25 10z m-1095 -22 c-3 -3 -11
0 -18 7 -9 10 -8 11 6 5 10 -3 15 -9 12 -12z m750 8 c-3 -5 -12 -10 -18 -10
-7 0 -6 4 3 10 19 12 23 12 15 0z m-1074 -17 c13 -16 12 -17 -3 -4 -10 7 -18
15 -18 17 0 8 8 3 21 -13z m374 -11 c-3 -3 -11 0 -18 7 -9 10 -8 11 6 5 10 -3
15 -9 12 -12z m665 14 c0 -2 -7 -7 -16 -10 -8 -3 -12 -2 -9 4 6 10 25 14 25 6z
m-620 -26 c8 -5 11 -10 5 -10 -5 0 -17 5 -25 10 -8 5 -10 10 -5 10 6 0 17 -5
25 -10z m1350 -4 c0 -2 -8 -10 -17 -17 -16 -13 -17 -12 -4 4 13 16 21 21 21
13z m-833 -12 c-3 -3 -12 -4 -19 -1 -8 3 -5 6 6 6 11 1 17 -2 13 -5z m393 2
c0 -2 -8 -10 -17 -17 -16 -13 -17 -12 -4 4 13 16 21 21 21 13z m-793 -12 c-3
-3 -12 -4 -19 -1 -8 3 -5 6 6 6 11 1 17 -2 13 -5z m340 0 c-3 -3 -12 -4 -19
-1 -8 3 -5 6 6 6 11 1 17 -2 13 -5z m-290 -10 c-3 -3 -12 -4 -19 -1 -8 3 -5 6
6 6 11 1 17 -2 13 -5z m236 -1 c-7 -2 -21 -2 -30 0 -10 3 -4 5 12 5 17 0 24
-2 18 -5z m-95 -10 c-15 -2 -42 -2 -60 0 -18 2 -6 4 27 4 33 0 48 -2 33 -4z
m1002 -16 c0 -2 -10 -12 -22 -23 l-23 -19 19 23 c18 21 26 27 26 19z m-2039
-44 c13 -16 12 -17 -3 -4 -10 7 -18 15 -18 17 0 8 8 3 21 -13z m1399 -27 c0
-2 -8 -10 -17 -17 -16 -13 -17 -12 -4 4 13 16 21 21 21 13z m570 1 c0 -1 -24
-25 -52 -52 l-53 -50 50 53 c46 48 55 57 55 49z m-693 -144 c-3 -10 -5 -2 -5
17 0 19 2 27 5 18 2 -10 2 -26 0 -35z m-1116 20 c13 -16 12 -17 -3 -4 -17 13
-22 21 -14 21 2 0 10 -8 17 -17z m533 -29 c3 -8 2 -12 -4 -9 -6 3 -10 10 -10
16 0 14 7 11 14 -7z m66 -57 c149 -42 342 -41 467 3 l53 18 1 -76 c2 -107 9
-130 44 -150 17 -9 32 -18 34 -19 13 -8 -36 -42 -67 -46 -20 -2 -68 -12 -107
-21 -112 -27 -237 -31 -337 -12 -104 20 -228 57 -210 63 6 3 12 15 12 27 0 12
5 27 10 32 6 6 13 54 17 108 4 64 10 96 17 93 6 -2 36 -11 66 -20z m735 -107
c-3 -5 -14 -10 -23 -9 -14 0 -13 2 3 9 27 11 27 11 20 0z m-957 -71 l-3 -44
-5 52 c-3 29 -1 48 3 44 5 -5 7 -28 5 -52z m65 4 c-7 -2 -21 -2 -30 0 -10 3
-4 5 12 5 17 0 24 -2 18 -5z m787 -3 c13 -9 13 -10 0 -9 -8 1 -26 5 -40 9
l-25 8 25 1 c14 0 32 -4 40 -9z m37 -37 c-3 -10 -5 -4 -5 12 0 17 2 24 5 18 2
-7 2 -21 0 -30z m-26 -43 c-13 -11 -31 -20 -40 -20 -9 0 0 8 19 19 46 24 50
24 21 1z m-144 -56 c-3 -3 -12 -4 -19 -1 -8 3 -5 6 6 6 11 1 17 -2 13 -5z
m-44 -11 c-7 -2 -19 -2 -25 0 -7 3 -2 5 12 5 14 0 19 -2 13 -5z m-350 -10 c-7
-2 -21 -2 -30 0 -10 3 -4 5 12 5 17 0 24 -2 18 -5z m277 -3 c-8 -5 -19 -10
-25 -10 -5 0 -3 5 5 10 8 5 20 10 25 10 6 0 3 -5 -5 -10z m-207 -7 c-7 -2 -21
-2 -30 0 -10 3 -4 5 12 5 17 0 24 -2 18 -5z m120 0 c-13 -2 -33 -2 -45 0 -13
2 -3 4 22 4 25 0 35 -2 23 -4z"/>
<path d="M1280 2395 c0 -73 1 -75 25 -75 24 0 25 2 25 75 0 73 -1 75 -25 75
-24 0 -25 -2 -25 -75z"/>
<path d="M1152 2444 c-40 -28 -22 -74 29 -74 15 0 31 -4 34 -10 4 -6 -6 -10
-23 -10 -29 0 -58 -21 -45 -33 3 -4 24 -7 45 -7 40 0 78 27 78 55 0 18 -31 35
-64 35 -14 0 -26 5 -26 11 0 8 14 10 41 6 30 -4 42 -2 46 10 13 33 -74 46
-115 17z"/>
<path d="M1357 2453 c-12 -12 -7 -109 6 -127 9 -13 23 -17 52 -14 45 3 58 21
70 96 6 39 5 43 -11 40 -12 -2 -22 -18 -29 -45 -21 -86 -60 -82 -54 6 3 41 1
51 -12 51 -9 0 -19 -3 -22 -7z"/>
<path d="M1064 2418 c-22 -43 -20 -42 -46 -24 -12 9 -30 16 -40 16 -29 0 -21
-27 13 -40 20 -9 35 -25 46 -51 23 -58 61 -51 44 8 -7 23 -4 38 15 69 29 48
30 54 4 54 -12 0 -26 -12 -36 -32z"/>
<path d="M1518 2414 c-17 -17 -6 -54 23 -79 35 -29 32 -46 -4 -22 -34 22 -58
6 -33 -22 27 -30 91 -29 107 1 11 20 8 26 -26 55 -45 38 -39 57 6 24 23 -17
34 -20 42 -12 17 17 -23 52 -69 58 -21 3 -42 1 -46 -3z"/>
<path d="M913 2379 c-8 -8 -9 -19 -2 -37 13 -33 7 -36 -35 -22 -38 12 -76 6
-76 -13 0 -22 83 -125 97 -120 18 7 16 20 -8 54 -24 34 -14 37 49 12 63 -24
68 -9 26 70 -19 37 -36 67 -38 67 -1 0 -7 -5 -13 -11z"/>
<path d="M1255 2283 c-128 -16 -175 -29 -258 -71 -170 -87 -314 -267 -344
-432 -15 -82 -16 -219 -3 -292 19 -104 80 -228 148 -303 l30 -32 -34 -54 c-36
-59 -41 -75 -21 -82 9 -3 9 -8 -2 -21 -8 -9 -12 -19 -9 -22 3 -2 189 -7 414
-10 225 -3 457 -6 515 -8 l106 -2 -1 40 c-1 24 -12 61 -28 89 l-27 48 54 67
c324 401 106 989 -399 1078 -45 8 -88 13 -96 12 -8 0 -28 -3 -45 -5z m216 -53
c198 -61 353 -210 420 -406 21 -59 24 -88 24 -204 0 -123 -2 -142 -28 -208
-34 -91 -66 -146 -119 -207 l-41 -46 -33 56 c-19 31 -34 60 -34 64 0 17 -32
34 -73 38 -23 3 -70 11 -105 19 -35 8 -83 14 -107 14 l-44 0 6 50 c4 33 2 50
-5 50 -6 0 -16 18 -22 40 -14 50 -27 51 -36 3 -4 -21 -15 -50 -25 -65 -21 -29
-24 -48 -9 -48 6 0 10 -7 10 -16 0 -14 -8 -15 -47 -9 -30 4 -85 0 -155 -11
l-109 -18 -45 -74 -46 -73 -25 23 c-45 42 -103 142 -130 223 -36 112 -38 267
-5 375 87 280 349 470 627 456 50 -3 120 -14 156 -26z m-179 -752 c-7 -7 -12
-8 -12 -2 0 6 3 14 7 17 3 4 9 5 12 2 2 -3 -1 -11 -7 -17z m-7 -37 c3 -5 1
-12 -5 -16 -5 -3 -10 1 -10 9 0 18 6 21 15 7z m26 -55 c-7 -54 -23 -69 -41
-37 -9 17 -8 21 5 21 9 0 15 9 15 23 0 19 19 53 25 44 1 -1 -1 -24 -4 -51z
m-62 -60 c13 -6 23 -14 22 -18 0 -5 -1 -68 -1 -141 l0 -134 -62 13 c-82 18
-143 17 -264 -1 -54 -8 -113 -12 -131 -9 l-31 6 29 50 c17 28 54 87 83 132
l53 82 104 20 c104 21 154 21 198 0z m235 -7 c36 -10 60 -13 122 -18 14 -1 30
-18 50 -52 16 -29 41 -73 56 -98 52 -87 69 -123 63 -129 -3 -3 -72 2 -153 12
-163 21 -244 22 -285 7 -16 -6 -33 -11 -38 -11 -5 0 -9 60 -9 140 0 122 2 140
18 149 23 14 127 14 176 0z m-171 -323 c4 -10 -5 -13 -34 -13 -32 0 -37 2 -28
13 15 18 55 18 62 0z"/>
<path d="M1265 2227 c-59 -30 -142 -94 -197 -151 -84 -88 -165 -289 -184 -453
-6 -60 -6 -62 17 -67 13 -3 201 -7 418 -10 l394 -6 -6 87 c-18 257 -165 500
-362 601 l-40 20 -40 -21z m101 -38 c85 -55 187 -170 233 -262 47 -96 66 -163
76 -272 l8 -78 -349 7 c-192 4 -366 10 -388 13 l-38 6 6 51 c4 28 21 95 37
149 52 168 127 274 258 361 47 31 90 56 96 56 6 0 34 -14 61 -31z"/>
<path d="M1265 2150 c-10 -11 -20 -18 -23 -15 -3 2 -13 -7 -24 -20 -10 -14
-24 -24 -30 -22 -6 1 -12 -3 -15 -10 -7 -19 37 -3 50 18 7 11 18 19 25 19 7 0
24 11 38 25 16 16 20 25 11 25 -8 0 -22 -9 -32 -20z"/>
<path d="M1334 2139 c-4 -8 -3 -9 4 -5 7 4 12 2 12 -3 0 -6 7 -11 16 -11 20 0
13 24 -8 28 -9 2 -20 -2 -24 -9z"/>
<path d="M1243 2070 c-68 -53 -118 -116 -154 -193 -28 -61 -58 -171 -48 -181
2 -2 119 -7 260 -11 179 -5 258 -4 263 3 11 18 -13 103 -55 188 -42 86 -169
234 -200 234 -9 0 -39 -18 -66 -40z m26 -21 c-6 -12 -9 -42 -6 -65 5 -46 -1
-51 -34 -33 -15 7 -27 6 -49 -5 -44 -22 -37 -4 28 63 59 63 81 77 61 40z m61
-34 c10 -29 10 -40 1 -43 -6 -2 -11 -14 -11 -28 0 -16 -4 -22 -14 -18 -19 7
-31 -15 -16 -29 9 -9 14 -8 23 4 16 21 80 30 117 17 25 -8 27 -12 16 -23 -19
-19 -62 -29 -70 -16 -9 14 -56 15 -56 1 0 -12 23 -64 31 -70 11 -8 -14 -36
-37 -42 -25 -6 -57 9 -49 23 4 5 0 9 -7 9 -9 0 -9 3 -2 8 6 4 11 14 12 22 0 8
4 26 8 39 7 22 5 23 -32 19 -41 -5 -94 8 -94 23 0 13 73 30 84 19 6 -6 18 -10
28 -10 16 0 18 7 14 52 -3 36 1 59 11 75 19 28 26 22 43 -32z m50 11 c15 -17
40 -46 56 -65 l28 -34 -25 9 c-13 5 -41 8 -61 7 -41 -3 -43 -1 -28 27 8 14 6
30 -5 56 -8 20 -15 38 -15 41 0 9 24 -11 50 -41z m-224 -141 c10 -8 39 -15 63
-15 35 0 42 -3 37 -16 -3 -9 -6 -17 -6 -18 0 -2 -22 -2 -49 0 -42 3 -49 1 -54
-16 -3 -12 -14 -20 -26 -20 -14 0 -21 -6 -21 -18 0 -25 28 -48 66 -56 28 -6
33 -4 53 30 12 20 24 34 27 31 3 -3 -5 -21 -18 -41 -23 -35 -24 -36 -92 -36
l-69 0 6 38 c6 45 45 152 56 152 4 0 16 -7 27 -15z m351 -47 c12 -25 25 -64
29 -86 l6 -40 -55 -7 c-73 -9 -85 -6 -109 35 l-20 35 21 -25 21 -25 -4 27 c-4
22 -1 26 17 26 25 -2 47 -16 47 -31 0 -5 -10 -2 -22 9 -22 19 -22 19 -8 0 14
-18 13 -19 -2 -14 -10 4 -19 1 -22 -9 -5 -13 -1 -14 24 -10 38 8 82 36 74 49
-3 5 -17 13 -30 18 -13 5 -23 15 -22 22 3 13 -5 15 -64 17 -16 1 -32 9 -38 21
-10 19 -9 20 27 15 24 -4 47 0 63 9 35 20 42 16 67 -36z m-325 -35 c-10 -4 -9
-8 3 -17 15 -11 14 -14 -7 -31 l-23 -20 19 23 c23 26 11 29 -17 5 -11 -10 -17
-12 -13 -5 5 8 0 12 -16 12 -20 0 -18 3 12 19 19 11 40 20 45 20 6 0 4 -3 -3
-6z m281 -20 c18 -9 26 -18 20 -20 -7 -3 -25 5 -39 16 -32 25 -24 27 19 4z
m-186 -29 c-3 -3 -12 -4 -19 -1 -8 3 -5 6 6 6 11 1 17 -2 13 -5z m80 -20 c-12
-12 -85 -16 -103 -5 -16 10 -15 11 11 6 17 -3 44 -1 60 4 30 8 44 6 32 -5z
m16 -21 c-7 -2 -19 -2 -25 0 -7 3 -2 5 12 5 14 0 19 -2 13 -5z"/>
<path d="M1380 2103 c0 -16 69 -75 79 -68 6 3 11 1 11 -5 0 -6 9 -20 20 -32
15 -16 20 -18 20 -7 0 8 -6 21 -12 28 -7 6 -13 17 -13 24 0 7 -11 12 -23 12
-13 0 -34 12 -47 28 -24 27 -35 33 -35 20z"/>
<path d="M1143 2053 c2 -5 -4 -16 -15 -25 -17 -17 -18 -17 -19 0 0 11 -2 12
-6 4 -3 -7 1 -19 7 -27 11 -13 15 -11 31 9 21 27 25 46 8 46 -5 0 -8 -3 -6 -7z"/>
<path d="M1081 1976 c-8 -9 -11 -19 -7 -23 9 -9 29 13 24 27 -2 8 -8 7 -17 -4z"/>
<path d="M1512 1955 c31 -37 41 -46 46 -41 8 9 -28 56 -44 56 -12 0 -13 -3 -2
-15z"/>
<path d="M1045 1920 c-3 -5 -3 -15 0 -20 4 -6 1 -9 -7 -8 -8 2 -13 -9 -15 -32
-1 -19 -6 -36 -12 -38 -16 -5 -13 -22 4 -22 10 0 17 14 21 40 4 22 10 40 14
40 4 0 10 11 12 25 5 25 -5 34 -17 15z"/>
<path d="M1550 1889 c0 -5 5 -7 12 -3 8 5 9 2 5 -9 -6 -17 4 -23 16 -10 8 7
-11 33 -24 33 -5 0 -9 -5 -9 -11z"/>
<path d="M1576 1843 c-12 -12 -6 -22 9 -17 8 4 15 2 15 -4 0 -6 -5 -12 -11
-14 -8 -3 -7 -16 2 -48 17 -60 31 -75 23 -25 -3 22 -6 54 -5 71 1 30 -19 51
-33 37z"/>
<path d="M995 1782 c-13 -9 -17 -82 -4 -82 9 0 13 15 10 34 -1 4 4 15 10 22
14 17 0 38 -16 26z"/>
<path d="M970 1685 c0 -3 5 -16 11 -27 8 -15 8 -19 0 -14 -6 4 -11 2 -11 -3 0
-6 7 -11 16 -11 19 0 16 51 -3 58 -7 2 -13 1 -13 -3z"/>
<path d="M1614 1649 c1 -18 7 -34 14 -37 10 -3 13 5 10 29 -4 43 -25 50 -24 8z"/>
<path d="M1130 1320 c0 -5 7 -10 16 -10 8 0 12 5 9 10 -3 6 -10 10 -16 10 -5
0 -9 -4 -9 -10z"/>
<path d="M1216 1301 c-19 -7 -19 -8 0 -13 13 -3 21 0 21 8 0 8 -1 14 -1 13 -1
0 -10 -4 -20 -8z"/>
<path d="M970 1290 c0 -5 4 -10 9 -10 6 0 13 5 16 10 3 6 -1 10 -9 10 -9 0
-16 -4 -16 -10z"/>
<path d="M1190 1270 c0 -4 11 -10 25 -12 13 -3 22 -2 20 2 -7 11 -45 20 -45
10z"/>
<path d="M1090 1190 c0 -5 5 -10 10 -10 6 0 10 5 10 10 0 6 -4 10 -10 10 -5 0
-10 -4 -10 -10z"/>
<path d="M1188 1163 c7 -3 16 -2 19 1 4 3 -2 6 -13 5 -11 0 -14 -3 -6 -6z"/>
<path d="M1410 1250 c-23 -7 -23 -8 -3 -9 12 -1 25 4 28 9 3 6 5 10 3 9 -2 -1
-14 -5 -28 -9z"/>
<path d="M1320 1235 c0 -8 4 -15 8 -15 5 0 9 7 9 15 0 8 -4 15 -9 15 -4 0 -8
-7 -8 -15z"/>
<path d="M1608 1223 c7 -3 16 -2 19 1 4 3 -2 6 -13 5 -11 0 -14 -3 -6 -6z"/>
<path d="M1620 1206 c0 -2 7 -7 16 -10 8 -3 12 -2 9 4 -6 10 -25 14 -25 6z"/>
<path d="M1608 1183 c7 -3 16 -2 19 1 4 3 -2 6 -13 5 -11 0 -14 -3 -6 -6z"/>
<path d="M1636 1171 c-4 -5 -2 -12 3 -15 5 -4 12 -2 15 3 4 5 2 12 -3 15 -5 4
-12 2 -15 -3z"/>
<path d="M1325 1130 c-3 -5 -1 -10 4 -10 6 0 11 5 11 10 0 6 -2 10 -4 10 -3 0
-8 -4 -11 -10z"/>
<path d="M1325 1070 c-3 -5 -1 -10 4 -10 6 0 11 5 11 10 0 6 -2 10 -4 10 -3 0
-8 -4 -11 -10z"/>
<path d="M1488 1073 c7 -3 16 -2 19 1 4 3 -2 6 -13 5 -11 0 -14 -3 -6 -6z"/>
<path d="M741 2258 c-54 -20 -68 -82 -26 -123 30 -31 73 -32 103 -5 27 26 28
63 2 100 -23 32 -46 41 -79 28z m49 -48 c23 -23 25 -41 8 -58 -17 -17 -31 -15
-56 8 -26 25 -27 33 -6 54 20 21 30 20 54 -4z"/>
<path d="M1764 2258 c-12 -5 -27 -21 -33 -35 -20 -43 25 -103 78 -103 31 0 25
24 -9 37 -22 8 -30 18 -30 36 0 14 7 28 16 31 21 8 64 -19 64 -39 0 -8 9 -15
20 -15 24 0 24 1 6 45 -21 51 -64 67 -112 43z"/>
<path d="M632 2147 c-9 -10 2 -23 44 -56 50 -39 84 -48 84 -23 0 9 -103 92
-113 92 -3 0 -9 -6 -15 -13z"/>
<path d="M1861 2134 c-47 -39 -40 -93 16 -122 40 -22 102 17 103 65 0 35 -11
53 -41 68 -38 20 -42 19 -78 -11z m74 -45 c14 -42 -45 -66 -61 -24 -10 25 4
45 30 45 16 0 27 -7 31 -21z"/>
<path d="M587 2069 c-15 -9 -47 -59 -47 -73 0 -7 116 -66 128 -66 14 0 35 48
35 82 0 54 -65 86 -116 57z m75 -44 c17 -38 -2 -52 -40 -29 -25 14 -29 21 -21
36 14 26 47 22 61 -7z"/>
<path d="M1960 2001 c-38 -21 -54 -35 -53 -48 4 -36 34 -93 48 -93 19 0 19 23
0 60 -15 28 -15 28 33 53 44 23 60 46 37 54 -5 1 -35 -10 -65 -26z"/>
<path d="M2010 1861 c-35 -11 -54 -22 -53 -32 8 -66 20 -104 33 -104 16 0 18
23 7 66 -6 24 -3 27 41 40 28 9 48 22 50 32 4 21 -8 21 -78 -2z"/>
<path d="M480 1825 c-8 -10 -14 -43 -14 -83 l-1 -67 73 -3 c59 -2 72 0 72 13
0 9 -9 15 -25 15 -20 0 -25 5 -25 24 0 19 8 27 35 36 25 8 35 18 35 32 0 20
-9 21 -50 4 -10 -4 -19 2 -25 16 -12 28 -56 36 -75 13z m46 -46 c-3 -17 -6
-40 -6 -50 0 -11 -6 -19 -13 -19 -12 0 -13 52 -2 88 9 28 27 11 21 -19z"/>
<path d="M1998 1703 c-15 -4 -18 -16 -18 -64 0 -52 2 -59 20 -59 17 0 20 7 20
46 0 27 4 43 10 39 6 -3 10 -17 10 -31 0 -15 6 -24 15 -24 10 0 15 10 15 30 0
21 5 30 16 30 13 0 15 -9 12 -47 -2 -39 0 -48 15 -51 15 -3 17 5 17 67 l0 71
-57 -1 c-32 -1 -66 -3 -75 -6z"/>
<path d="M523 1612 c-59 -28 -73 -39 -73 -57 0 -13 7 -26 16 -29 14 -6 141
-36 149 -36 9 0 -9 35 -22 43 -16 10 -18 64 -2 69 6 2 9 13 7 24 -3 20 -6 20
-75 -14z m27 -52 c0 -5 -9 -10 -21 -10 -11 0 -17 5 -14 10 3 6 13 10 21 10 8
0 14 -4 14 -10z"/>
<path d="M2000 1552 c-13 -11 -23 -33 -27 -60 -5 -40 -4 -42 28 -56 38 -16 45
-13 54 27 6 23 4 27 -13 27 -11 0 -23 -6 -26 -12 -3 -7 -4 -2 -3 11 1 13 9 29
19 34 34 22 66 -41 36 -71 -9 -9 -9 -15 1 -24 10 -11 16 -8 32 11 33 41 21 93
-28 119 -30 16 -47 15 -73 -6z"/>
<path d="M545 1454 c-93 -23 -95 -40 -7 -68 28 -10 52 -21 52 -25 0 -4 -13
-25 -30 -47 -54 -72 -34 -89 55 -45 47 24 63 36 58 47 -6 15 -17 15 -57 -2
-16 -6 -15 -1 9 29 31 42 29 47 -23 63 l-37 11 28 8 c17 4 27 14 27 26 0 22 3
22 -75 3z"/>
<path d="M1937 1378 c-22 -60 -24 -70 -10 -75 7 -3 20 12 30 31 21 44 31 46
29 5 -1 -39 21 -50 30 -15 3 14 12 26 20 26 12 0 12 -6 -2 -37 -21 -52 -21
-56 -2 -60 12 -3 22 11 37 52 12 31 21 60 21 65 0 7 -116 50 -135 50 -1 0 -9
-19 -18 -42z"/>
<path d="M950 885 c0 -30 5 -55 10 -55 6 0 10 7 10 15 0 8 9 15 20 15 10 0 24
8 29 18 14 26 -13 62 -45 62 -23 0 -24 -3 -24 -55z m50 14 c0 -5 -7 -9 -15 -9
-15 0 -20 12 -9 23 8 8 24 -1 24 -14z"/>
<path d="M1035 879 c-9 -28 -14 -53 -10 -57 4 -4 10 -1 12 6 6 15 35 16 51 0
20 -20 22 -3 7 50 -9 30 -22 52 -30 52 -7 0 -21 -22 -30 -51z m32 -11 c-3 -8
-6 -5 -6 6 -1 11 2 17 5 13 3 -3 4 -12 1 -19z"/>
<path d="M1120 920 c0 -5 9 -10 20 -10 11 0 20 -3 20 -6 0 -3 -9 -17 -20 -31
-31 -40 -26 -53 20 -53 22 0 40 5 40 10 0 6 -12 10 -26 10 l-26 0 26 34 c35
47 33 56 -14 56 -22 0 -40 -4 -40 -10z"/>
<path d="M1210 875 c0 -40 4 -55 14 -55 8 0 13 7 12 16 0 9 5 19 12 21 7 3 12
-4 12 -16 0 -12 6 -21 15 -21 12 0 15 13 15 55 0 42 -3 55 -15 55 -8 0 -15 -9
-15 -20 0 -11 -4 -20 -10 -20 -5 0 -10 9 -10 20 0 11 -7 20 -15 20 -12 0 -15
-13 -15 -55z"/>
<path d="M1315 879 c-18 -54 -15 -70 10 -49 13 11 19 11 31 -2 16 -16 64 -13
64 5 0 5 8 3 18 -6 25 -23 32 -13 32 45 0 37 -4 48 -16 48 -10 0 -14 -6 -11
-15 4 -8 2 -17 -3 -20 -5 -3 -11 4 -15 15 -13 40 -35 23 -36 -27 l-1 -48 -16
53 c-8 28 -21 52 -28 52 -7 0 -20 -23 -29 -51z m32 -21 c-3 -8 -6 -5 -6 6 -1
11 2 17 5 13 3 -3 4 -12 1 -19z"/>
<path d="M1538 883 c-3 -35 -5 -38 -30 -35 -30 3 -36 -6 -16 -26 17 -17 55
-15 62 4 9 25 7 94 -3 94 -6 0 -11 -17 -13 -37z"/>
<path d="M1576 904 c-3 -9 -6 -33 -6 -55 0 -28 4 -39 15 -39 12 0 15 13 15 55
0 53 -11 72 -24 39z"/>
<path d="M2185 1141 c-3 -5 -2 -12 3 -15 5 -3 9 1 9 9 0 17 -3 19 -12 6z"/>
<path d="M325 930 c-4 -6 -1 -18 6 -26 11 -13 8 -19 -17 -39 -16 -14 -32 -24
-36 -25 -12 0 -10 -28 2 -35 6 -3 27 7 47 24 34 28 37 29 50 13 11 -14 14 -15
22 -3 6 10 0 27 -22 57 -34 45 -42 51 -52 34z"/>
<path d="M389 812 c-8 -9 -28 -27 -44 -40 -21 -17 -26 -25 -17 -34 8 -8 15 -8
27 2 12 10 18 10 30 0 19 -16 19 -30 -1 -44 -13 -10 -14 -14 -2 -24 20 -16
118 82 100 100 -9 9 -17 7 -33 -11 -19 -21 -23 -21 -37 -7 -14 14 -14 17 1 34
9 10 17 24 17 30 0 18 -23 14 -41 -6z"/>
<path d="M461 693 c-23 -25 -40 -51 -38 -57 6 -18 55 -49 67 -41 8 5 5 15 -12
32 l-23 25 25 -4 c22 -3 25 0 22 26 -3 29 -3 29 22 13 36 -24 45 -1 13 29 -15
13 -28 24 -31 24 -2 0 -23 -21 -45 -47z"/>
<path d="M583 628 c-25 -29 -57 -78 -52 -81 26 -19 60 -37 69 -37 16 0 12 30
-5 36 -21 8 -19 20 10 58 14 18 25 36 25 39 0 15 -28 6 -47 -15z"/>
<path d="M675 592 c-6 -4 -21 -22 -34 -40 -20 -28 -22 -38 -12 -58 16 -36 54
-32 85 9 31 40 32 58 8 80 -20 19 -31 21 -47 9z m24 -65 c-13 -28 -39 -37 -39
-14 0 7 7 23 16 36 22 30 39 13 23 -22z"/>
<path d="M730 504 c-25 -43 -30 -58 -21 -67 9 -9 15 -8 22 6 12 21 29 13 29
-13 0 -10 7 -20 15 -24 11 -4 15 1 15 18 0 12 10 31 22 42 21 19 21 19 14 -6
-19 -64 -19 -67 9 -74 56 -14 101 52 69 102 -21 32 -44 39 -59 18 -12 -15 -13
-15 -19 7 -4 19 -41 47 -61 47 -2 0 -18 -25 -35 -56z m70 2 c0 -18 -16 -29
-30 -21 -13 8 -1 35 16 35 8 0 14 -6 14 -14z m80 -76 c-11 -21 -30 -27 -30
-11 0 5 5 22 11 38 9 25 12 26 20 11 7 -12 6 -25 -1 -38z"/>
<path d="M2198 904 c-4 -3 -2 -20 3 -37 13 -46 13 -47 -28 -44 -27 1 -38 -2
-39 -13 -4 -22 72 -84 92 -76 15 6 15 8 -2 28 -19 21 -19 21 9 14 30 -7 34 2
16 36 -14 26 -1 38 16 14 14 -18 35 -14 34 7 0 12 -75 77 -88 77 -4 0 -10 -3
-13 -6z"/>
<path d="M2077 752 c-21 -23 -21 -35 -2 -72 13 -24 22 -30 50 -30 54 0 75 60
35 100 -25 25 -62 26 -83 2z m61 -24 c16 -16 15 -35 -3 -42 -22 -8 -45 4 -45
23 0 32 26 41 48 19z"/>
<path d="M1983 670 c-18 -11 -33 -22 -33 -25 0 -11 62 -105 70 -105 15 0 58
40 62 58 6 22 -17 82 -31 82 -5 0 -15 2 -23 5 -7 3 -28 -4 -45 -15z m65 -52
c-4 -32 -23 -32 -43 -2 -14 21 -14 28 -4 35 20 12 51 -9 47 -33z"/>
<path d="M1887 606 c-12 -10 -17 -24 -15 -43 3 -27 5 -28 47 -25 39 2 42 1 31
-13 -7 -8 -19 -15 -26 -15 -8 0 -14 -4 -14 -10 0 -5 13 -10 30 -10 37 0 56 30
39 61 -9 18 -17 20 -50 15 -41 -7 -57 11 -19 21 22 6 28 33 8 33 -7 0 -21 -7
-31 -14z"/>
<path d="M1810 566 c0 -13 49 -114 58 -120 24 -15 21 17 -5 66 -24 44 -53 74
-53 54z"/>
<path d="M1770 511 c0 -48 -5 -50 -32 -16 -27 35 -34 32 -43 -17 l-7 -43 -14
33 c-8 17 -21 32 -29 32 -20 0 -19 -2 10 -66 30 -65 52 -71 61 -14 4 22 9 40
12 40 3 0 19 -12 34 -27 37 -36 48 -22 40 51 -8 70 -32 90 -32 27z"/>
<path d="M1026 344 c-21 -21 -21 -107 0 -128 18 -19 55 -21 72 -4 7 7 12 25
12 40 0 24 -4 28 -30 28 -30 0 -43 -24 -17 -33 6 -2 9 -8 5 -12 -15 -15 -28 8
-28 50 0 49 16 67 37 40 10 -14 16 -16 25 -7 8 8 8 15 -2 27 -16 19 -54 19
-74 -1z"/>
<path d="M1462 334 c-29 -20 -25 -54 8 -71 31 -15 33 -39 3 -36 -14 2 -23 -3
-23 -12 0 -37 60 -29 78 10 10 21 9 28 -8 45 -11 11 -27 20 -35 20 -8 0 -15 5
-15 10 0 6 11 10 24 10 33 0 42 16 17 29 -25 14 -22 14 -49 -5z"/>
<path d="M1134 270 c-8 -86 -8 -84 9 -88 11 -2 16 15 21 68 3 39 4 76 1 81
-15 23 -24 4 -31 -61z"/>
<path d="M1190 317 c0 -8 4 -27 9 -43 5 -16 12 -46 16 -66 5 -32 10 -38 30
-38 21 0 27 9 46 70 23 70 22 87 -5 77 -8 -3 -17 -27 -21 -57 -8 -60 -14 -58
-35 12 -15 48 -40 77 -40 45z"/>
<path d="M1353 323 c-21 -4 -23 -10 -23 -79 l0 -74 29 0 c39 0 61 9 61 26 0 9
-11 14 -30 14 -31 0 -41 16 -15 26 20 8 19 24 -2 40 -16 12 -15 14 15 20 17 3
32 13 32 20 0 14 -21 16 -67 7z"/>
</g>
</svg>
